<svg width="56" height="56" viewBox="0 0 56 56" fill="none" xmlns="http://www.w3.org/2000/svg">
<g id="ic:round-close">
<rect width="56" height="56" fill="#F8F8F8"/>
<path id="Vector" d="M42.6995 13.3239C42.4837 13.1075 42.2273 12.9359 41.945 12.8188C41.6627 12.7018 41.3601 12.6415 41.0545 12.6415C40.7489 12.6415 40.4464 12.7018 40.1641 12.8188C39.8818 12.9359 39.6254 13.1075 39.4095 13.3239L27.9995 24.7105L16.5895 13.3005C16.3735 13.0845 16.1171 12.9131 15.8348 12.7962C15.5526 12.6793 15.2501 12.6191 14.9445 12.6191C14.639 12.6191 14.3365 12.6793 14.0543 12.7962C13.772 12.9131 13.5156 13.0845 13.2995 13.3005C13.0835 13.5165 12.9122 13.773 12.7952 14.0553C12.6783 14.3375 12.6182 14.64 12.6182 14.9455C12.6182 15.251 12.6783 15.5535 12.7952 15.8358C12.9122 16.118 13.0835 16.3745 13.2995 16.5905L24.7095 28.0005L13.2995 39.4105C13.0835 39.6265 12.9122 39.883 12.7952 40.1653C12.6783 40.4475 12.6182 40.75 12.6182 41.0555C12.6182 41.361 12.6783 41.6635 12.7952 41.9458C12.9122 42.228 13.0835 42.4845 13.2995 42.7005C13.5156 42.9165 13.772 43.0879 14.0543 43.2048C14.3365 43.3217 14.639 43.3819 14.9445 43.3819C15.2501 43.3819 15.5526 43.3217 15.8348 43.2048C16.1171 43.0879 16.3735 42.9165 16.5895 42.7005L27.9995 31.2905L39.4095 42.7005C39.6256 42.9165 39.882 43.0879 40.1643 43.2048C40.4465 43.3217 40.749 43.3819 41.0545 43.3819C41.36 43.3819 41.6626 43.3217 41.9448 43.2048C42.2271 43.0879 42.4835 42.9165 42.6995 42.7005C42.9156 42.4845 43.0869 42.228 43.2038 41.9458C43.3207 41.6635 43.3809 41.361 43.3809 41.0555C43.3809 40.75 43.3207 40.4475 43.2038 40.1653C43.0869 39.883 42.9156 39.6265 42.6995 39.4105L31.2895 28.0005L42.6995 16.5905C43.5862 15.7039 43.5862 14.2105 42.6995 13.3239Z" fill="#161616"/>
</g>
</svg>
