<svg width="42" height="42" viewBox="0 0 42 42" fill="none" xmlns="http://www.w3.org/2000/svg">
<g id="mdi:arrow-right-thin">
<rect x="41.5002" y="0.5" width="41" height="41" transform="rotate(90 41.5002 0.5)" fill="#F8F8F8"/>
<path id="Arrow 1" d="M21.5 14C21.5 13.7239 21.2761 13.5 21 13.5C20.7239 13.5 20.5 13.7239 20.5 14L21.5 14ZM20.6464 28.3536C20.8417 28.5488 21.1583 28.5488 21.3536 28.3536L24.5355 25.1716C24.7308 24.9763 24.7308 24.6597 24.5355 24.4645C24.3403 24.2692 24.0237 24.2692 23.8284 24.4645L21 27.2929L18.1716 24.4645C17.9763 24.2692 17.6597 24.2692 17.4645 24.4645C17.2692 24.6597 17.2692 24.9763 17.4645 25.1716L20.6464 28.3536ZM20.5 14L20.5 28L21.5 28L21.5 14L20.5 14Z" fill="#161616"/>
<rect x="41.5002" y="0.5" width="41" height="41" transform="rotate(90 41.5002 0.5)" stroke="#DCDCDC"/>
</g>
</svg>
