<svg width="32" height="33" viewBox="0 0 32 33" fill="none" xmlns="http://www.w3.org/2000/svg">
<g id="Group">
<path id="Vector" d="M28.25 0.5H3.75C1.68225 0.5 0 2.18225 0 4.25V28.75C0 30.8178 1.68225 32.5 3.75 32.5H28.25C30.3178 32.5 32 30.8178 32 28.75V4.25C32 2.18225 30.3178 0.5 28.25 0.5ZM29.5 28.75C29.5 29.4393 28.9393 30 28.25 30H21.125V19.8125H24.9869L25.625 15.9375H21.125V13.25C21.125 12.1891 21.9391 11.375 23 11.375H25.5625V7.5H23C19.8173 7.5 17.2514 10.0781 17.2514 13.2609V15.9375H13.5V19.8125H17.2514V30H3.75C3.06075 30 2.5 29.4393 2.5 28.75V4.25C2.5 3.56075 3.06075 3 3.75 3H28.25C28.9393 3 29.5 3.56075 29.5 4.25V28.75Z" fill="#161616"/>
<path id="Vector_2" d="M21.125 30H17.2514V32.5H21.125V30ZM21.125 30V19.8125H24.9869L25.625 15.9375H21.125V13.25C21.125 12.1891 21.9391 11.375 23 11.375H25.5625V7.5H23C19.8173 7.5 17.2514 10.0781 17.2514 13.2609V15.9375H13.5V19.8125H17.2514V30H21.125Z" fill="#161616"/>
</g>
</svg>
