<svg width="469" height="335" viewBox="0 0 469 335" fill="none" xmlns="http://www.w3.org/2000/svg">
<path d="M102.852 75.4668L82.1844 136.698L82.0281 137.167L79.5345 144.541V144.557L72.0305 166.774H14.75L102.852 75.4668Z" fill="#FA6801"/>
<path d="M134.169 95.6481L88.168 132.269L109.203 70.6709L134.169 95.6481Z" fill="#FA6801"/>
<path d="M109.13 124.916L109.185 124.97L107.762 126.48L107.676 126.581L103.549 131.485L103.346 131.531L78.958 159.472L85.6413 139.68L120.363 112.036L109.13 124.916Z" fill="#FA6801"/>
<path d="M144.588 166.775H79.3975L109.359 131.154L144.588 166.775Z" fill="#FA6801"/>
<path d="M200.664 109.281L183.788 127.963L180.88 131.177L149.582 165.804L113.398 129.23L200.664 109.281Z" fill="#FA6801"/>
<path d="M146.675 168.88L146.745 168.935L146.8 168.88H146.675ZM115.549 124.392L115.533 124.407L182.108 109.174L115.549 124.392Z" fill="white"/>
<path d="M204.088 104.157L182.108 109.178L115.533 124.411L115.549 124.395L187.861 47.4541L204.088 104.157Z" fill="#FA6801"/>
<path d="M227.1 7.5498L222.246 28.7108L218.33 45.7898V45.8054L217.298 50.2316L206.511 97.2456L191.245 43.8973L227.1 7.5498Z" fill="#FA6801"/>
<path d="M243.194 162.322V162.337L222.542 150.388L187.523 130.134V130.127L205.752 109.967L206.51 109.138L207.722 110.882L243.194 162.322Z" fill="#FA6801"/>
<path d="M152.638 168.878H152.498L152.568 168.809L152.638 168.878Z" fill="#FA6801"/>
<path d="M242.409 166.77H154.417L184.621 133.355V133.34L242.409 166.77Z" fill="#FA6801"/>
<path d="M269.364 88.7979L249.415 163.894L210.121 106.909L269.364 88.7979Z" fill="#FA6801"/>
<path d="M267.592 84.9206L209.616 102.633L221.052 52.8115L267.592 84.9206Z" fill="#FA6801"/>
<path d="M266.941 79.3196L222.065 48.3679L231.539 7.03906L231.555 7.07034L266.941 79.3196Z" fill="#FA6801"/>
<path d="M302.552 76.3281L275.342 82.7875L273.552 83.2098L273.497 83.1003L238.416 11.4609L302.552 76.3281Z" fill="#FA6801"/>
<path d="M302.221 80.7588L256.001 155.597L273.667 89.1028V89.0949L274.12 87.4293L274.136 87.3276L275.386 86.9444L275.457 87.1008H275.472L302.221 80.7588Z" fill="#FA6801"/>
<path d="M303.679 86.4531L300.935 113.596L300.411 118.687L298.137 141.115L298.113 141.381L295.549 166.773H254.082L303.671 86.4688L303.679 86.4531Z" fill="#FA6801"/>
<path d="M338.449 166.406L337.73 166.414L300.272 167.149L302.274 142.453L302.328 141.843L304.103 124.201L319.361 142.93L319.392 142.977L319.447 143.047L319.556 143.188L319.627 143.274L338.449 166.406Z" fill="#FA6801"/>
<path d="M323.219 140.981L304.795 117.412L307.922 86.4678L334.686 155.073L335.124 156.215L323.5 141.333L323.406 141.208L323.336 141.122L323.219 140.981Z" fill="#FA6801"/>
<path d="M339.625 156.09L309.562 79.0232L309.202 78.0769L309.734 77.5686L334.833 53.9834L336.154 82.2372L336.185 82.6908L336.342 85.9752L336.568 90.675L336.576 90.9565L338.991 142.467L339.593 155.495V155.511L339.625 156.09Z" fill="#FA6801"/>
<path d="M359.22 78.3789L342.695 131.391L340.679 88.4277L359.22 78.3789Z" fill="#FA6801"/>
<path d="M359.22 73.5623L350.223 78.4421L347.151 80.1155L340.468 83.744H340.452L339.084 54.458L359.22 73.5623Z" fill="#FA6801"/>
<path d="M388.671 103.843L345.179 137.657L363.743 78.0918L388.671 103.843Z" fill="#FA6801"/>
<path d="M380.253 115.753L380.23 115.776L344.179 162.986L343.304 144.484V144.468H343.319L347.486 141.223L351.441 138.149L380.23 115.761L380.253 115.753Z" fill="#FA6801"/>
<path d="M346.614 166.768L387.652 113.021L375.614 166.768H346.614Z" fill="#FA6801"/>
<path d="M451.084 166.774H417.379L397.212 112.511L451.084 166.774Z" fill="#FA6801"/>
<path d="M412.867 166.768H379.959L392.341 111.504L412.867 166.768Z" fill="#FA6801"/>
<path d="M14.6201 271.169V175.201H36.7804V216.561L71.9085 175.201H96.7655L60.8244 218.047L99.1965 271.169H73.933L46.7779 232.514L36.7804 242.923V271.176H14.6201V271.169Z" fill="#161616"/>
<path d="M132.432 175.201H152.427L187.422 271.169H164.722L157.289 249.679H127.429L120.136 271.169H97.4365L132.432 175.201ZM153.646 234.407L142.429 200.483L130.947 234.407H153.646Z" fill="#161616"/>
<path d="M196.878 271.169V175.201H240.112C244.614 175.201 248.781 176.147 252.611 178.04C256.441 179.932 259.747 182.411 262.538 185.477C265.328 188.542 267.517 192.014 269.088 195.885C270.659 199.764 271.449 203.682 271.449 207.646C271.449 210.618 271.089 213.48 270.37 216.233C269.651 218.986 268.611 221.574 267.267 224.006C265.915 226.438 264.273 228.628 262.335 230.559C260.396 232.499 258.215 234.141 255.784 235.494L276.858 271.176H251.86L233.483 240.225H219.023V271.176H196.878V271.169ZM219.038 220.886H239.307C241.918 220.886 244.169 219.65 246.06 217.171C247.952 214.692 248.898 211.517 248.898 207.639C248.898 203.674 247.819 200.522 245.654 198.176C243.489 195.83 241.152 194.665 238.627 194.665H219.038V220.886Z" fill="#161616"/>
<path d="M313.485 175.201H333.48L368.476 271.169H345.776L338.342 249.679H308.483L301.19 271.169H278.49L313.485 175.201ZM334.7 234.407L323.483 200.483L312 234.407H334.7Z" fill="#161616"/>
<path d="M451.026 194.665H421.847V271.169H399.687V194.665H370.366V175.201H451.026V194.665Z" fill="#161616"/>
<path d="M26.7397 308.747H18.5401V325.208H14.8506V289.314H18.5401V305.416H26.7397L38.8868 289.314H42.9906L29.6632 306.745L43.7566 325.201H39.3949L26.7397 308.747Z" fill="#161616"/>
<path d="M64.5334 289.012C69.1765 289.012 72.8347 290.38 75.5001 293.117C78.1969 295.815 79.5492 299.733 79.5492 304.855V325.211H75.805V314.646H53.2617V325.211H49.5723V304.855C49.5723 299.725 50.9011 295.815 53.5666 293.117C56.2711 290.38 59.9215 289.012 64.5334 289.012ZM75.8128 311.361V304.488C75.8128 300.492 74.8201 297.481 72.8425 295.463C70.8571 293.414 68.0899 292.39 64.5412 292.39C60.9846 292.39 58.2175 293.414 56.2399 295.463C54.2544 297.481 53.2696 300.492 53.2696 304.488V311.361H75.8128Z" fill="#161616"/>
<path d="M128.379 289.314V325.201H124.744V296.485L110.651 320.634H108.861L94.7676 296.642V325.201H91.1328V289.314H94.2595L109.838 315.926L125.26 289.314H128.379Z" fill="#161616"/>
<path d="M139.907 286.906C140.696 286.906 141.345 287.18 141.853 287.727C142.369 288.243 142.619 288.893 142.619 289.675C142.619 290.081 142.549 290.527 142.416 291.004C142.314 291.45 142.158 291.981 141.955 292.591L139.75 299.669H137.288L139.078 292.286C138.5 292.114 138.039 291.809 137.695 291.364C137.351 290.887 137.179 290.324 137.179 289.675C137.179 288.853 137.437 288.189 137.945 287.673C138.468 287.164 139.117 286.906 139.907 286.906Z" fill="#161616"/>
<path d="M177.151 289.314V325.201H173.407V314.331H162.698C162.221 314.331 161.533 314.299 160.65 314.229L153.114 325.201H149.065L157.21 313.564C154.576 312.775 152.567 311.39 151.16 309.412C149.761 307.394 149.058 304.931 149.058 302.03C149.058 297.995 150.324 294.867 152.849 292.646C155.413 290.425 158.86 289.314 163.198 289.314H177.151ZM152.864 301.928C152.864 304.869 153.716 307.144 155.428 308.747C157.171 310.319 159.696 311.109 163.01 311.109H173.414V292.599H163.37C160.024 292.599 157.421 293.404 155.577 295.007C153.763 296.579 152.864 298.886 152.864 301.928Z" fill="#161616"/>
<path d="M219.246 289.314V325.201H215.502V308.638H193.053V325.201H189.262V289.314H193.053V305.314H215.502V289.314H219.246Z" fill="#161616"/>
<path d="M260.209 289.314V325.201H256.574V319.148C254.214 323.386 250.204 325.506 244.529 325.506C240.261 325.506 236.908 324.223 234.484 321.658C232.061 319.093 230.85 315.433 230.85 310.687V289.314H234.641V310.593C234.641 314.385 235.563 317.255 237.408 319.203C239.284 321.15 241.902 322.127 245.248 322.127C248.765 322.127 251.501 321.103 253.448 319.054C255.433 316.966 256.418 313.862 256.418 309.725V289.314H260.209Z" fill="#161616"/>
<path d="M300.947 289.317V325.204H297.313V319.151C294.952 323.389 290.942 325.509 285.267 325.509C280.999 325.509 277.646 324.226 275.223 321.661C272.799 319.096 271.588 315.436 271.588 310.69V289.317H275.379V310.596C275.379 314.389 276.301 317.258 278.146 319.206C280.022 321.153 282.641 322.13 285.986 322.13C289.504 322.13 292.24 321.106 294.186 319.057C296.171 316.969 297.156 313.865 297.156 309.728V289.317H300.947ZM286.494 286.706C283.93 286.706 281.898 286.127 280.397 284.962C278.928 283.797 278.177 282.178 278.146 280.09H280.968C280.999 281.458 281.515 282.538 282.508 283.32C283.5 284.109 284.829 284.5 286.502 284.5C288.144 284.5 289.457 284.109 290.449 283.32C291.473 282.53 292.005 281.458 292.036 280.09H294.858C294.827 282.178 294.053 283.797 292.552 284.962C291.036 286.119 289.019 286.706 286.494 286.706Z" fill="#161616"/>
<path d="M360.944 321.928V333.259H357.41V325.213H325.534L325.479 333.259H321.946L322.001 321.928H326.511V304.443C326.511 299.453 327.84 295.637 330.506 293.01C333.202 290.343 336.86 289.014 341.472 289.014C346.084 289.014 349.727 290.343 352.384 293.01C355.081 295.645 356.433 299.453 356.433 304.443V321.928H360.944ZM352.642 321.928V304.083C352.642 300.22 351.65 297.319 349.672 295.364C347.726 293.377 344.99 292.392 341.472 292.392C337.916 292.392 335.149 293.385 333.171 295.364C331.225 297.311 330.248 300.22 330.248 304.083V321.928H352.642Z" fill="#161616"/>
<path d="M390.047 306.698C392.541 307.215 394.44 308.216 395.738 309.725C397.036 311.195 397.684 313.126 397.684 315.519C397.684 318.632 396.574 321.025 394.354 322.698C392.166 324.372 388.938 325.208 384.67 325.208H368.786V289.314H383.7C387.523 289.314 390.516 290.104 392.666 291.676C394.816 293.248 395.894 295.524 395.894 298.495C395.894 300.513 395.378 302.218 394.354 303.625C393.33 304.986 391.9 306.01 390.047 306.698ZM372.522 305.564H383.489C386.256 305.564 388.375 305.001 389.844 303.875C391.345 302.749 392.095 301.107 392.095 298.957C392.095 296.806 391.345 295.164 389.844 294.038C388.375 292.912 386.256 292.349 383.489 292.349H372.522V305.564ZM384.67 322.182C390.853 322.182 393.948 319.875 393.948 315.261C393.948 310.749 390.853 308.497 384.67 308.497H372.522V322.19H384.67V322.182Z" fill="#161616"/>
<path d="M407.172 289.314H410.908V325.201H407.172V289.314Z" fill="#161616"/>
<path d="M436.411 289.057C440.952 289.057 444.525 290.253 447.12 292.646C449.715 295.039 451.012 298.339 451.012 302.538C451.012 306.605 449.801 309.819 447.378 312.18C444.955 314.503 441.617 315.668 437.388 315.668C435.301 315.668 433.323 315.379 431.44 314.8C429.564 314.182 427.68 313.26 425.804 312.032V325.209H422.06V303.109C422.06 298.667 423.302 295.211 425.804 292.756C428.336 290.292 431.869 289.057 436.411 289.057ZM436.825 312.54C440.069 312.54 442.617 311.672 444.462 309.928C446.307 308.153 447.229 305.705 447.229 302.593C447.229 299.449 446.276 296.971 444.36 295.156C442.445 293.342 439.835 292.443 436.52 292.443C433.136 292.443 430.509 293.381 428.626 295.266C426.75 297.111 425.804 299.723 425.804 303.109V308.388C427.305 309.756 428.977 310.796 430.83 311.516C432.706 312.196 434.707 312.54 436.825 312.54Z" fill="#161616"/>
</svg>
