<svg width="32" height="33" viewBox="0 0 32 33" fill="none" xmlns="http://www.w3.org/2000/svg">
<g id="Group">
<path id="Vector" d="M23.9994 0.5H7.9998C3.6003 0.5 0 4.1003 0 8.4998V24.5002C0 28.8985 3.6003 32.5 7.9998 32.5H23.9994C28.3989 32.5 31.9992 28.8985 31.9992 24.5002V8.4998C31.9992 4.1003 28.3989 0.5 23.9994 0.5ZM29.3325 24.5002C29.3325 27.4401 26.941 29.8333 23.9994 29.8333H7.9998C5.05949 29.8333 2.66673 27.4401 2.66673 24.5002V8.4998C2.66673 5.5591 5.05949 3.16673 7.9998 3.16673H23.9994C26.941 3.16673 29.3325 5.5591 29.3325 8.4998V24.5002Z" fill="#161616"/>
<path id="Vector_2" d="M24.6669 9.83291C25.7715 9.83291 26.6669 8.9375 26.6669 7.83296C26.6669 6.72842 25.7715 5.83301 24.6669 5.83301C23.5624 5.83301 22.667 6.72842 22.667 7.83296C22.667 8.9375 23.5624 9.83291 24.6669 9.83291Z" fill="#161616"/>
<path id="Vector_3" d="M15.9998 8.5C11.5807 8.5 8 12.0811 8 16.4998C8 20.9169 11.5807 24.5004 15.9998 24.5004C20.4177 24.5004 23.9996 20.9169 23.9996 16.4998C23.9996 12.0811 20.4177 8.5 15.9998 8.5ZM15.9998 21.8337C13.0546 21.8337 10.6667 19.4457 10.6667 16.4998C10.6667 13.5539 13.0546 11.1667 15.9998 11.1667C18.945 11.1667 21.3329 13.5539 21.3329 16.4998C21.3329 19.4457 18.945 21.8337 15.9998 21.8337Z" fill="#161616"/>
</g>
</svg>
