<svg width="84" height="84" viewBox="0 0 84 84" fill="none" xmlns="http://www.w3.org/2000/svg">
<g id="mdi:arrow-right-thin">
<rect x="83" y="83" width="82" height="82" transform="rotate(-180 83 83)" fill="#F8F8F8"/>
<path id="Arrow 1" d="M56 43C56.5523 43 57 42.5523 57 42C57 41.4477 56.5523 41 56 41L56 43ZM27.2929 41.2929C26.9024 41.6834 26.9024 42.3166 27.2929 42.7071L33.6569 49.0711C34.0474 49.4616 34.6805 49.4616 35.0711 49.0711C35.4616 48.6805 35.4616 48.0474 35.0711 47.6569L29.4142 42L35.0711 36.3431C35.4616 35.9526 35.4616 35.3195 35.0711 34.9289C34.6805 34.5384 34.0474 34.5384 33.6569 34.9289L27.2929 41.2929ZM56 41L28 41L28 43L56 43L56 41Z" fill="#161616"/>
<rect x="83" y="83" width="82" height="82" transform="rotate(-180 83 83)" stroke="#DCDCDC" stroke-width="2"/>
</g>
</svg>
