<svg width="32" height="33" viewBox="0 0 32 33" fill="none" xmlns="http://www.w3.org/2000/svg">
<g id="Group 584">
<path id="Vector" d="M0.414842 8.45606C0.456953 8.85551 0.557656 9.24654 0.713698 9.61654H0.67664C0.681421 9.63451 0.708916 9.67283 0.713698 9.69079C1.73698 12.6058 4.29996 18.1866 9.34345 23.2393C14.424 28.3291 20.0975 30.7842 22.9043 31.8848H22.9414C23.6448 32.1177 24.3964 32.1642 25.1231 32.0198C25.8498 31.8755 26.5268 31.5451 27.0883 31.0608L27.1254 31.0237H27.1624L30.7116 27.4309L30.861 27.2812C31.8509 26.2896 31.8509 24.5674 30.861 23.5758L25.967 18.6728C24.9772 17.6812 23.2211 17.6812 22.2313 18.6728L19.8787 21.0309C19.024 20.6189 16.9224 19.553 14.9476 17.662C12.9847 15.7878 11.9853 13.6357 11.6207 12.7974L14.0869 10.3267L14.161 10.2153C14.5352 9.65367 14.7456 9.01295 14.7217 8.34349C14.6977 7.71714 14.3905 7.06684 13.8621 6.58541L13.9597 6.67875L13.788 6.47283L9.00634 1.6441C8.01653 0.652487 6.26046 0.652487 5.27065 1.6441L1.57321 5.35068C1.03437 5.8979 0.659193 6.58532 0.490154 7.33511C0.406522 7.7029 0.381108 8.08037 0.414842 8.45606ZM2.80569 8.26924C2.77341 7.81415 2.96468 7.36146 3.25397 7.07164L6.95261 3.32913C7.15822 3.12314 7.0841 3.12314 7.28852 3.32913L12.2961 8.34229C12.2914 8.3375 12.3284 8.34229 12.3332 8.45487C13.7213 7.63496 12.2579 8.6884 12.1838 8.82972L9.34345 11.7123L8.7828 12.2728L9.04459 12.9842C9.04459 12.9842 10.4169 16.6656 13.3039 19.4213C16.1334 22.1303 19.6157 23.6129 19.6157 23.6129L20.364 23.9123L20.9618 23.3506L23.9503 20.3566C24.1559 20.1518 24.0818 20.1518 24.2862 20.3566L29.1803 25.2596C29.3859 25.4656 29.3859 25.3914 29.1803 25.5962L25.5558 29.2644C25.5474 29.274 25.5283 29.2548 25.5199 29.2644L25.4816 29.3015C24.9628 29.7183 24.4117 29.844 23.7626 29.6393C23.7495 29.6345 23.7399 29.6429 23.7268 29.6393C21.0263 28.577 15.7366 26.2381 11.0242 21.5171C6.29393 16.7782 3.86124 11.4034 2.95511 8.79259L2.91806 8.75546V8.71834C2.85231 8.57343 2.81525 8.41894 2.80569 8.26924Z" fill="#161616"/>
<path id="Vector (Stroke)" fill-rule="evenodd" clip-rule="evenodd" d="M4.987 1.36063C6.13243 0.213122 8.1408 0.213122 9.28623 1.36063L14.081 6.20261L14.2528 6.4086C14.7784 6.94238 15.0916 7.63721 15.118 8.32704C15.1453 9.09196 14.9042 9.81482 14.4907 10.4356C14.4906 10.4356 14.4907 10.4355 14.4907 10.4356L14.3947 10.5799L12.0941 12.8846C12.5218 13.8282 13.4845 15.7141 15.2206 17.3719C16.9782 19.0548 18.8419 20.0716 19.7961 20.5459L21.9476 18.3894C23.093 17.2419 25.1015 17.2418 26.2469 18.3893L31.1409 23.2923C32.2864 24.4398 32.2864 26.4147 31.1409 27.5623L30.993 27.7105L30.9915 27.712L27.3268 31.4217H27.276C26.6766 31.9185 25.9628 32.2584 25.1988 32.4102C24.426 32.5638 23.6275 32.5198 22.8768 32.2828H22.8272L22.7572 32.2553C19.9316 31.1474 14.198 28.6679 9.05981 23.5204C3.97557 18.4268 1.38585 12.8042 0.343727 9.84426C0.339718 9.83722 0.333935 9.8269 0.328431 9.81631C0.324211 9.80818 0.318313 9.79641 0.312228 9.78242C0.306663 9.76963 0.297393 9.74695 0.289742 9.71821L0.192741 9.35379C0.106411 9.0749 0.0473808 8.78789 0.0166938 8.4968L0.0160446 8.49064C-0.0214247 8.07336 0.00684566 7.65401 0.0996734 7.24561C0.28514 6.42326 0.696654 5.66933 1.28765 5.06914L1.28947 5.0673L4.987 1.36063ZM1.25316 10.0146C2.36076 12.9918 4.88632 18.2101 9.62334 22.9558C14.6046 27.9462 20.1665 30.3781 22.9778 31.4844H23.0036L23.0646 31.5045C23.7027 31.7158 24.3845 31.7581 25.0437 31.6271C25.6982 31.497 26.3083 31.2007 26.8154 30.7666L26.9584 30.6233H26.9943L30.4265 27.1489L30.428 27.1474L30.5774 26.9977C31.4116 26.162 31.4116 24.6926 30.5774 23.8569L25.6833 18.9539C24.8492 18.1182 23.3455 18.1182 22.5113 18.9538C22.5112 18.9538 22.5113 18.9538 22.5113 18.9538L19.9588 21.5122L19.7041 21.3894C18.8358 20.9709 16.6902 19.8835 14.6704 17.9494C12.6502 16.0203 11.6253 13.8104 11.2535 12.9556L11.1451 12.7063L13.7753 10.0712L13.8276 9.99272C14.1623 9.49017 14.3421 8.93051 14.3216 8.35657C14.3034 7.87998 14.0808 7.36759 13.6793 6.96305L13.5851 6.87297L13.5938 6.86363L13.4913 6.74068L8.7227 1.92519C8.72252 1.92501 8.72288 1.92537 8.7227 1.92519C7.88842 1.09005 6.38465 1.08965 5.55062 1.9251C5.55059 1.92513 5.55065 1.92507 5.55062 1.9251L1.85411 5.63074C1.36799 6.12476 1.02952 6.74518 0.876959 7.42186C0.802816 7.74792 0.779986 8.08307 0.809561 8.41603C0.847748 8.77536 0.938489 9.12711 1.07888 9.45998L1.31276 10.0146H1.25316ZM7.1193 3.72476L3.53526 7.35131L3.53385 7.35272C3.32076 7.56621 3.17772 7.90763 3.20128 8.23976L3.20148 8.24255C3.20803 8.34513 3.23366 8.45217 3.27894 8.55196L3.27992 8.55412L3.2996 8.57385L3.32961 8.6603C4.22242 11.2327 6.62829 16.5493 11.3041 21.2336C15.9221 25.86 21.1058 28.1746 23.805 29.2407C23.8087 29.2411 23.8123 29.2416 23.8161 29.2422C23.8385 29.2456 23.8611 29.2509 23.8836 29.2583C24.3899 29.4171 24.7996 29.3296 25.2164 29.0001L25.2378 28.9794C25.2574 28.9599 25.2795 28.9419 25.3039 28.9261C25.3201 28.9157 25.3365 28.9067 25.353 28.8991L28.7834 25.4273L24.1164 20.7517L21.2326 23.6408L20.4498 24.3761L19.4579 23.9792L19.6112 23.618C19.458 23.9791 19.458 23.9793 19.4579 23.9792L19.4544 23.9776L19.4458 23.9739L19.4139 23.9599C19.3862 23.9478 19.3459 23.9298 19.2939 23.9062C19.19 23.8589 19.0396 23.7889 18.8507 23.6965C18.473 23.5117 17.9409 23.2374 17.3195 22.8774C16.0788 22.1586 14.4721 21.0925 13.0267 19.7087C11.5446 18.2939 10.4572 16.648 9.74173 15.3626C9.38324 14.7185 9.11637 14.1616 8.93866 13.7646C8.84978 13.5661 8.7831 13.4073 8.73834 13.2973C8.71596 13.2423 8.69905 13.1995 8.68758 13.17L8.67444 13.136L8.67092 13.1267L8.66992 13.124C8.66988 13.1239 8.66942 13.1227 9.04272 12.983L8.66992 13.124L8.66884 13.1211L8.31872 12.1697L9.05799 11.4307L9.06011 11.4286L11.8752 8.57151C11.8906 8.55145 11.9048 8.53558 11.9145 8.52524L7.1193 3.72476ZM12.6749 8.45699C12.6768 8.45098 12.6784 8.44492 12.68 8.43881L12.6551 8.43987C12.6615 8.44579 12.6681 8.4515 12.6749 8.45699ZM12.445 7.92762C12.4793 7.90851 12.5107 7.89138 12.5393 7.87614C12.623 7.83153 12.7229 7.78049 12.8067 7.75934C12.8269 7.75425 12.8885 7.73915 12.9649 7.74778C13.0059 7.75242 13.0765 7.76659 13.1488 7.81587C13.2301 7.87129 13.2885 7.95455 13.3128 8.05039C13.3511 8.20126 13.2903 8.31898 13.2794 8.3401C13.2597 8.37846 13.2369 8.40878 13.2249 8.42382C13.1808 8.4792 13.1158 8.5381 13.0688 8.57973C12.9947 8.64536 12.8952 8.72811 12.8018 8.80579C12.7619 8.83899 12.723 8.87127 12.6878 8.90088C12.6254 8.95328 12.5732 8.99813 12.5356 9.03263C12.5271 9.04043 12.5202 9.04694 12.5147 9.05225L12.5071 9.06674L9.62304 11.9937L9.24311 12.3735L9.41595 12.8432L9.41652 12.8447L9.41904 12.8514L9.43008 12.88C9.44012 12.9058 9.45552 12.9448 9.4763 12.9958C9.51787 13.098 9.58096 13.2483 9.66584 13.4379C9.83567 13.8173 10.0923 14.3531 10.4378 14.9738C11.1302 16.2178 12.1722 17.7903 13.5769 19.1311C14.9611 20.4563 16.5106 21.4865 17.7185 22.1862C18.3214 22.5355 18.8367 22.8011 19.2004 22.979C19.3821 23.0679 19.5258 23.1348 19.6234 23.1793C19.6722 23.2015 19.7095 23.218 19.7342 23.2289L19.7617 23.2409L19.7662 23.2428L20.2745 23.4462L20.6826 23.0627L23.6667 20.0732C23.6793 20.0605 23.6917 20.0479 23.7024 20.0368C23.7097 20.0291 23.7167 20.0217 23.7234 20.0145C23.7265 20.0113 23.7299 20.0076 23.7335 20.0038C23.7464 19.99 23.7619 19.9734 23.775 19.9602C23.7902 19.9447 23.8228 19.9118 23.8654 19.8825C23.9111 19.851 23.998 19.8027 24.1168 19.8027C24.2358 19.8027 24.3228 19.8511 24.3688 19.8829C24.4115 19.9125 24.4442 19.9455 24.4593 19.961C24.4723 19.9743 24.4878 19.991 24.5006 20.0048C24.5042 20.0086 24.5075 20.0122 24.5106 20.0154C24.527 20.033 24.5449 20.0519 24.5661 20.0732L29.4602 24.9762C29.4816 24.9976 29.5006 25.0157 29.5182 25.0322C29.5248 25.0384 29.5327 25.0457 29.541 25.0535C29.5518 25.0636 29.5632 25.0744 29.5728 25.0839C29.5883 25.0991 29.6213 25.1317 29.6507 25.1744C29.6823 25.2201 29.7311 25.3075 29.7311 25.4271C29.7311 25.547 29.6822 25.6345 29.6503 25.6805C29.6206 25.7232 29.5875 25.7559 29.572 25.771C29.5586 25.784 29.542 25.7995 29.5282 25.8123C29.5243 25.8159 29.5206 25.8193 29.5173 25.8224C29.5 25.8385 29.4814 25.8561 29.4605 25.8769C29.4601 25.8773 29.4597 25.8777 29.4593 25.8781L25.8394 29.5417C25.8185 29.5633 25.7947 29.5831 25.768 29.6003C25.745 29.6151 25.7215 29.627 25.6981 29.6363C25.1067 30.0988 24.4481 30.2542 23.7013 30.0371C23.7002 30.037 23.699 30.0369 23.6979 30.0368C23.6731 30.0348 23.6469 30.0305 23.62 30.0232L23.5993 30.0175L23.5793 30.0096C20.8585 28.9394 15.5097 26.576 10.7406 21.7982C6.00747 17.0565 3.54969 11.6889 2.60718 9.00927L2.5177 8.91963V8.79747C2.45385 8.63327 2.41707 8.46227 2.40624 8.29494C2.36575 7.71778 2.6048 7.15481 2.96956 6.78894C2.96931 6.78919 2.96982 6.78868 2.96956 6.78894L6.66756 3.04707L6.66896 3.04566C6.69036 3.02423 6.7084 3.00519 6.72495 2.98749C6.72802 2.9842 6.73141 2.98056 6.73501 2.97669C6.74788 2.96286 6.76341 2.94617 6.77646 2.93282C6.79164 2.91728 6.82425 2.88427 6.8668 2.85478C6.91247 2.82314 6.99968 2.77425 7.11913 2.77425C7.23877 2.77425 7.32611 2.82327 7.37202 2.85521C7.41468 2.88489 7.44729 2.9181 7.46241 2.93367C7.47541 2.94705 7.49089 2.9638 7.50368 2.97762C7.50725 2.98149 7.51062 2.98512 7.51365 2.98839C7.52998 3.00598 7.54777 3.02485 7.56882 3.04608C7.56869 3.04594 7.56896 3.04621 7.56882 3.04608L12.445 7.92762Z" fill="#161616"/>
</g>
</svg>
