<svg width="42" height="43" viewBox="0 0 42 43" fill="none" xmlns="http://www.w3.org/2000/svg">
<g id="mdi:arrow-right-thin">
<rect x="0.500244" y="42" width="41" height="41" transform="rotate(-90 0.500244 42)" fill="#CB9F6B"/>
<path id="Arrow 1" d="M20.5005 28.5C20.5005 28.7761 20.7243 29 21.0005 29C21.2766 29 21.5005 28.7761 21.5005 28.5L20.5005 28.5ZM21.354 14.1464C21.1588 13.9512 20.8422 13.9512 20.6469 14.1464L17.465 17.3284C17.2697 17.5237 17.2697 17.8403 17.465 18.0355C17.6602 18.2308 17.9768 18.2308 18.1721 18.0355L21.0005 15.2071L23.8289 18.0355C24.0242 18.2308 24.3408 18.2308 24.536 18.0355C24.7313 17.8403 24.7313 17.5237 24.536 17.3284L21.354 14.1464ZM21.5005 28.5L21.5005 14.5L20.5005 14.5L20.5005 28.5L21.5005 28.5Z" fill="#F8F8F8"/>
<rect x="0.500244" y="42" width="41" height="41" transform="rotate(-90 0.500244 42)" stroke="#CB9F6B"/>
</g>
</svg>
