<svg width="363" height="259" viewBox="0 0 363 259" fill="none" xmlns="http://www.w3.org/2000/svg">
<path d="M79.5187 58.3457L63.5401 105.685L63.4193 106.048L61.4914 111.749V111.762L55.6898 128.938H11.4043L79.5187 58.3457Z" fill="#FA6801"/>
<path d="M103.731 73.9474L68.166 102.261L84.4286 54.6367L103.731 73.9474Z" fill="#FA6801"/>
<path d="M84.3722 96.5748L84.4145 96.6172L83.3146 97.784L83.2481 97.8626L80.0573 101.653L79.9001 101.69L61.0449 123.292L66.212 107.99L93.0565 86.6172L84.3722 96.5748Z" fill="#FA6801"/>
<path d="M111.787 128.938H61.3857L84.5498 101.398L111.787 128.938Z" fill="#FA6801"/>
<path d="M155.141 84.4902L142.093 98.934L139.845 101.419L115.647 128.19L87.6729 99.9134L155.141 84.4902Z" fill="#FA6801"/>
<path d="M113.4 130.567L113.454 130.609L113.497 130.567H113.4ZM89.3353 96.1716L89.3232 96.1837L140.794 84.4062L89.3353 96.1716Z" fill="white"/>
<path d="M157.788 80.5266L140.794 84.4081L89.3232 96.1856L89.3353 96.1735L145.242 36.6875L157.788 80.5266Z" fill="#FA6801"/>
<path d="M175.579 5.83594L171.826 22.1962L168.799 35.4006V35.4127L168.001 38.8347L159.661 75.1828L147.858 33.9375L175.579 5.83594Z" fill="#FA6801"/>
<path d="M188.022 125.495V125.507L172.056 116.269L144.981 100.61V100.604L159.075 85.0178L159.661 84.377L160.597 85.7252L188.022 125.495Z" fill="#FA6801"/>
<path d="M118.011 130.566H117.902L117.957 130.512L118.011 130.566Z" fill="#FA6801"/>
<path d="M187.416 128.936H119.386L142.737 103.102V103.09L187.416 128.936Z" fill="#FA6801"/>
<path d="M208.255 68.6523L192.832 126.711L162.452 82.6547L208.255 68.6523Z" fill="#FA6801"/>
<path d="M206.885 65.6547L162.062 79.3488L170.903 40.8301L206.885 65.6547Z" fill="#FA6801"/>
<path d="M206.381 61.324L171.687 37.3942L179.011 5.44141L179.023 5.46559L206.381 61.324Z" fill="#FA6801"/>
<path d="M233.914 59.0104L212.877 64.0044L211.493 64.3309L211.451 64.2462L184.328 8.85938L233.914 59.0104Z" fill="#FA6801"/>
<path d="M233.658 62.4375L197.924 120.297L211.582 68.8885V68.8825L211.932 67.5947L211.944 67.5161L212.911 67.2198L212.966 67.3408H212.978L233.658 62.4375Z" fill="#FA6801"/>
<path d="M234.785 66.8398L232.664 87.8253L232.259 91.7612L230.501 109.101L230.483 109.307L228.5 128.938H196.44L234.779 66.8519L234.785 66.8398Z" fill="#FA6801"/>
<path d="M261.667 128.653L261.111 128.659L232.151 129.228L233.698 110.135L233.741 109.663L235.113 96.0234L246.909 110.503L246.933 110.54L246.976 110.594L247.06 110.703L247.115 110.769L261.667 128.653Z" fill="#FA6801"/>
<path d="M249.893 108.996L235.648 90.7734L238.066 66.8496L258.758 119.891L259.097 120.773L250.11 109.268L250.038 109.171L249.983 109.105L249.893 108.996Z" fill="#FA6801"/>
<path d="M262.575 120.678L239.333 61.0954L239.055 60.3639L239.466 59.9709L258.871 41.7363L259.892 63.5803L259.916 63.931L260.037 66.4703L260.212 70.1039L260.218 70.3215L262.086 110.146L262.551 120.219V120.231L262.575 120.678Z" fill="#FA6801"/>
<path d="M277.725 60.5977L264.95 101.583L263.391 68.3667L277.725 60.5977Z" fill="#FA6801"/>
<path d="M277.726 56.8718L270.77 60.6445L268.395 61.9383L263.228 64.7436H263.216L262.158 42.1016L277.726 56.8718Z" fill="#FA6801"/>
<path d="M300.495 80.2843L266.87 106.427L281.223 60.375L300.495 80.2843Z" fill="#FA6801"/>
<path d="M293.987 89.4922L293.969 89.5103L266.097 126.01L265.42 111.705V111.693H265.432L268.653 109.184L271.711 106.808L293.969 89.4982L293.987 89.4922Z" fill="#FA6801"/>
<path d="M267.979 128.933L299.707 87.3789L290.4 128.933H267.979Z" fill="#FA6801"/>
<path d="M348.749 128.937H322.69L307.099 86.9844L348.749 128.937Z" fill="#FA6801"/>
<path d="M319.202 128.934H293.76L303.332 86.207L319.202 128.934Z" fill="#FA6801"/>
<path d="M11.3037 209.649V135.453H28.4366V167.43L55.5953 135.453H74.8131L47.0259 168.579L76.6926 209.649H57.1605L36.166 179.764L28.4366 187.811V209.655H11.3037V209.649Z" fill="#161616"/>
<path d="M102.388 135.453H117.847L144.903 209.649H127.353L121.606 193.035H98.5203L92.8819 209.649H75.332L102.388 135.453ZM118.79 181.227L110.117 155L101.24 181.227H118.79Z" fill="#161616"/>
<path d="M152.214 209.649V135.453H185.64C189.121 135.453 192.342 136.185 195.303 137.648C198.264 139.111 200.82 141.027 202.978 143.397C205.135 145.768 206.827 148.452 208.042 151.445C209.257 154.443 209.867 157.472 209.867 160.538C209.867 162.835 209.589 165.048 209.033 167.176C208.477 169.304 207.674 171.306 206.634 173.186C205.589 175.066 204.319 176.759 202.821 178.252C201.322 179.752 199.636 181.021 197.756 182.067L214.049 209.655H194.723L180.515 185.725H169.335V209.655H152.214V209.649ZM169.347 170.774H185.017C187.036 170.774 188.776 169.818 190.239 167.902C191.701 165.985 192.432 163.53 192.432 160.532C192.432 157.466 191.598 155.03 189.924 153.216C188.25 151.402 186.443 150.501 184.491 150.501H169.347V170.774Z" fill="#161616"/>
<path d="M242.367 135.453H257.825L284.881 209.649H267.332L261.584 193.035H238.499L232.86 209.649H215.311L242.367 135.453ZM258.768 181.227L250.096 155L241.218 181.227H258.768Z" fill="#161616"/>
<path d="M348.704 150.501H326.144V209.649H309.011V150.501H286.343V135.453H348.704V150.501Z" fill="#161616"/>
<path d="M20.6734 238.704H14.3339V251.431H11.4814V223.68H14.3339V236.128H20.6734L30.0647 223.68H33.2374L22.9336 237.156L33.8297 251.425H30.4575L20.6734 238.704Z" fill="#161616"/>
<path d="M49.8931 223.445C53.4829 223.445 56.3111 224.503 58.3719 226.619C60.4569 228.705 61.5024 231.734 61.5024 235.694V251.432H58.6076V243.264H41.1786V251.432H38.3262V235.694C38.3262 231.728 39.3535 228.705 41.4143 226.619C43.5053 224.503 46.3275 223.445 49.8931 223.445ZM58.6136 240.725V235.41C58.6136 232.321 57.8461 229.993 56.3172 228.433C54.7822 226.849 52.6428 226.057 49.8992 226.057C47.1494 226.057 45.0101 226.849 43.4811 228.433C41.9461 229.993 41.1847 232.321 41.1847 235.41V240.725H58.6136Z" fill="#161616"/>
<path d="M99.2535 223.68V251.424H96.4434V229.224L85.5472 247.894H84.1633L73.2672 229.345V251.424H70.457V223.68H72.8744L84.9187 244.254L96.8422 223.68H99.2535Z" fill="#161616"/>
<path d="M108.167 221.816C108.777 221.816 109.279 222.028 109.672 222.451C110.07 222.85 110.264 223.352 110.264 223.957C110.264 224.271 110.209 224.616 110.107 224.984C110.028 225.329 109.907 225.74 109.75 226.212L108.046 231.683H106.142L107.526 225.976C107.079 225.843 106.722 225.607 106.456 225.263C106.191 224.894 106.058 224.458 106.058 223.957C106.058 223.322 106.257 222.808 106.65 222.409C107.055 222.016 107.556 221.816 108.167 221.816Z" fill="#161616"/>
<path d="M136.961 223.68V251.424H134.066V243.021H125.787C125.418 243.021 124.886 242.996 124.203 242.942L118.378 251.424H115.247L121.544 242.428C119.508 241.818 117.955 240.747 116.867 239.218C115.785 237.658 115.241 235.753 115.241 233.51C115.241 230.391 116.22 227.972 118.172 226.255C120.154 224.538 122.82 223.68 126.174 223.68H136.961ZM118.184 233.432C118.184 235.705 118.843 237.464 120.167 238.704C121.514 239.919 123.466 240.53 126.029 240.53H134.072V226.219H126.307C123.72 226.219 121.708 226.842 120.281 228.081C118.879 229.296 118.184 231.08 118.184 233.432Z" fill="#161616"/>
<path d="M169.506 223.68V251.424H166.612V238.619H149.255V251.424H146.324V223.68H149.255V236.05H166.612V223.68H169.506Z" fill="#161616"/>
<path d="M201.176 223.68V251.425H198.366V246.745C196.541 250.022 193.441 251.66 189.053 251.66C185.754 251.66 183.161 250.669 181.288 248.686C179.414 246.703 178.478 243.873 178.478 240.203V223.68H181.409V240.131C181.409 243.063 182.122 245.282 183.548 246.787C184.998 248.293 187.023 249.048 189.609 249.048C192.329 249.048 194.444 248.256 195.949 246.672C197.484 245.058 198.245 242.658 198.245 239.46V223.68H201.176Z" fill="#161616"/>
<path d="M232.672 223.681V251.426H229.862V246.746C228.037 250.023 224.937 251.662 220.549 251.662C217.25 251.662 214.657 250.67 212.784 248.687C210.91 246.704 209.974 243.875 209.974 240.205V223.681H212.905V240.132C212.905 243.064 213.618 245.283 215.044 246.789C216.494 248.294 218.519 249.05 221.105 249.05C223.825 249.05 225.94 248.258 227.445 246.674C228.98 245.06 229.741 242.659 229.741 239.461V223.681H232.672ZM221.498 221.662C219.516 221.662 217.945 221.214 216.784 220.314C215.648 219.413 215.068 218.161 215.044 216.547H217.226C217.25 217.605 217.649 218.439 218.416 219.044C219.184 219.654 220.211 219.957 221.504 219.957C222.773 219.957 223.789 219.654 224.556 219.044C225.348 218.433 225.759 217.605 225.783 216.547H227.965C227.94 218.161 227.342 219.413 226.182 220.314C225.009 221.208 223.45 221.662 221.498 221.662Z" fill="#161616"/>
<path d="M279.058 248.893V257.653H276.327V251.432H251.682L251.64 257.653H248.908L248.951 248.893H252.438V235.374C252.438 231.517 253.465 228.566 255.526 226.535C257.611 224.473 260.439 223.445 264.004 223.445C267.57 223.445 270.386 224.473 272.441 226.535C274.526 228.572 275.571 231.517 275.571 235.374V248.893H279.058ZM272.64 248.893V235.096C272.64 232.109 271.873 229.866 270.344 228.355C268.839 226.819 266.724 226.057 264.004 226.057C261.255 226.057 259.115 226.825 257.586 228.355C256.082 229.86 255.326 232.109 255.326 235.096V248.893H272.64Z" fill="#161616"/>
<path d="M301.559 237.12C303.487 237.519 304.955 238.293 305.959 239.46C306.962 240.596 307.463 242.09 307.463 243.94C307.463 246.346 306.605 248.196 304.889 249.49C303.197 250.784 300.701 251.431 297.401 251.431H285.121V223.68H296.652C299.607 223.68 301.922 224.29 303.583 225.506C305.245 226.721 306.079 228.48 306.079 230.778C306.079 232.337 305.681 233.655 304.889 234.744C304.097 235.796 302.991 236.588 301.559 237.12ZM288.01 236.243H296.489C298.628 236.243 300.266 235.808 301.402 234.937C302.562 234.067 303.142 232.797 303.142 231.134C303.142 229.472 302.562 228.202 301.402 227.331C300.266 226.461 298.628 226.026 296.489 226.026H288.01V236.243ZM297.401 249.091C302.181 249.091 304.575 247.307 304.575 243.74C304.575 240.252 302.181 238.51 297.401 238.51H288.01V249.097H297.401V249.091Z" fill="#161616"/>
<path d="M314.799 223.68H317.688V251.424H314.799V223.68Z" fill="#161616"/>
<path d="M337.404 223.479C340.915 223.479 343.677 224.404 345.684 226.254C347.69 228.104 348.693 230.655 348.693 233.902C348.693 237.046 347.756 239.53 345.883 241.356C344.01 243.152 341.429 244.053 338.16 244.053C336.546 244.053 335.017 243.829 333.561 243.382C332.11 242.904 330.654 242.191 329.203 241.241V251.429H326.309V234.343C326.309 230.909 327.269 228.237 329.203 226.338C331.161 224.434 333.893 223.479 337.404 223.479ZM337.724 241.634C340.232 241.634 342.203 240.963 343.629 239.615C345.055 238.243 345.768 236.35 345.768 233.944C345.768 231.514 345.031 229.597 343.55 228.194C342.07 226.792 340.051 226.096 337.489 226.096C334.872 226.096 332.841 226.822 331.385 228.279C329.935 229.706 329.203 231.725 329.203 234.343V238.424C330.364 239.482 331.657 240.286 333.089 240.842C334.54 241.368 336.087 241.634 337.724 241.634Z" fill="#161616"/>
</svg>
